{"title":"Piya O Re Piya - Official Video - H.264 - 720p [HD] ~~~AbhinavRo","uid":6940144,"size":59079563,"categoryP":"video","categoryS":"music_videos","magnet":"?xt=urn:btih:e9575c8085482bca02efe99f48da08c805b73877&amp;dn=Piya+O+Re+Piya+-+Official+Video+-+H.264+-+720p+%5BHD%5D+%7E%7E%7EAbhinavRo&amp;tr=udp%3A%2F%2Ftracker.openbittorrent.com%3A80&amp;tr=udp%3A%2F%2Fopen.demonii.com%3A1337&amp;tr=udp%3A%2F%2Ftracker.coppersurfer.tk%3A6969&amp;tr=udp%3A%2F%2Fexodus.desync.com%3A6969","seeders":1,"leechers":0,"uploader":"AbhiHKRG","files":6,"time":1325977449,"description":"COVER ::\n &lt;a href=&quot;\nhttp://i.minus.com/iU9sQBab04yJH.png&quot; rel=&quot;nofollow&quot; target=&quot;_NEW&quot;&gt;\nhttp://i.minus.com/iU9sQBab04yJH.png&lt;/a&gt;\n\n\nSCREEN ::\n &lt;a href=&quot;\nhttp://i.minus.com/ibuTcs6BW3pNLD.png&quot; rel=&quot;nofollow&quot; target=&quot;_NEW&quot;&gt;\nhttp://i.minus.com/ibuTcs6BW3pNLD.png&lt;/a&gt;\n &lt;a href=&quot;\nhttp://i.minus.com/iW1MzpaGtYDDs.png&quot; rel=&quot;nofollow&quot; target=&quot;_NEW&quot;&gt;\nhttp://i.minus.com/iW1MzpaGtYDDs.png&lt;/a&gt;\n &lt;a href=&quot;\nhttp://i.minus.com/ibffJ7eCQTB6Jo.png&quot; rel=&quot;nofollow&quot; target=&quot;_NEW&quot;&gt;\nhttp://i.minus.com/ibffJ7eCQTB6Jo.png&lt;/a&gt;\n &lt;a href=&quot;\nhttp://i.minus.com/iFfG5jlmhdatl.png&quot; rel=&quot;nofollow&quot; target=&quot;_NEW&quot;&gt;\nhttp://i.minus.com/iFfG5jlmhdatl.png&lt;/a&gt;\n &lt;a href=&quot;\nhttp://i.minus.com/ioRAH8dJnfc5Y.png&quot; rel=&quot;nofollow&quot; target=&quot;_NEW&quot;&gt;\nhttp://i.minus.com/ioRAH8dJnfc5Y.png&lt;/a&gt;\n &lt;a href=&quot;\nhttp://i.minus.com/ibzD4CpIe8donW.png&quot; rel=&quot;nofollow&quot; target=&quot;_NEW&quot;&gt;\nhttp://i.minus.com/ibzD4CpIe8donW.png&lt;/a&gt;\n\n\nGeneral ::\nFormat                           : AVI\nFormat/Info                      : Audio Video Interleave\nFile size                        : 56.3 MiB\nDuration                         : 2mn 35s\nOverall bit rate                 : 3 033 Kbps\n\n\nVideo Info ::\nID                               : 0\nFormat                           : AVC\nFormat/Info                      : Advanced Video Codec\nFormat profile                   : &lt;a class=&quot;__cf_email__&quot; href=&quot;/cdn-cgi/l/email-protection&quot; data-cfemail=&quot;4a02232d220a067f647b&quot;&gt;[email&amp;#160;protected]&lt;/a&gt;&lt;script cf-hash='f9e31' type=&quot;text/javascript&quot;&gt;\n/* &lt;![CDATA[ */!function(){try{var t=&quot;currentScript&quot;in document?document.currentScript:function(){for(var t=document.getElementsByTagName(&quot;script&quot;),e=t.length;e--;)if(t[e].getAttribute(&quot;cf-hash&quot;))return t[e]}();if(t&amp;&amp;t.previousSibling){var e,r,n,i,c=t.previousSibling,a=c.getAttribute(&quot;data-cfemail&quot;);if(a){for(e=&quot;&quot;,r=parseInt(a.substr(0,2),16),n=2;a.length-n;n+=2)i=parseInt(a.substr(n,2),16)^r,e+=String.fromCharCode(i);e=document.createTextNode(e),c.parentNode.replaceChild(e,c)}}}catch(u){}}();/* ]]&gt; */&lt;/script&gt;\nFormat settings, CABAC           : Yes\nFormat settings, ReFrames        : 2 frames\nFormat settings, GOP             : M=3, N=4\nCodec ID                         : H264\nDuration                         : 10s 0ms\nBit rate                         : 2 700 Kbps\nWidth                            : 1 280 pixels\nHeight                           : 544 pixels\nDisplay aspect ratio             : 2.35:1\nFrame rate                       : 30.000 fps\nColor space                      : YUV\nChroma subsampling               : 4:2:0\nBit depth                        : 8 bits\nScan type                        : Progressive\nBits/(Pixel*Frame)               : 0.129\nStream size                      : 50.2 MiB (89%)\n\n\nAudio Info ::\nID                               : 1\nFormat                           : MPEG Audio\nFormat version                   : Version 1\nFormat profile                   : Layer 3\nCodec ID                         : 55\nCodec ID/Hint                    : MP3\nDuration                         : 2mn 35s\nBit rate mode                    : Constant\nBit rate                         : 320 Kbps\nChannel(s)                       : 2 channels\nSampling rate                    : 44.1 KHz\nCompression mode                 : Lossy\nStream size                      : 5.94 MiB (11%)","torrent":{"xt":"urn:btih:e9575c8085482bca02efe99f48da08c805b73877","amp;dn":"Piya+O+Re+Piya+-+Official+Video+-+H.264+-+720p+%5BHD%5D+%7E%7E%7EAbhinavRo","amp;tr":["udp%3A%2F%2Ftracker.openbittorrent.com%3A80","udp%3A%2F%2Fopen.demonii.com%3A1337","udp%3A%2F%2Ftracker.coppersurfer.tk%3A6969","udp%3A%2F%2Fexodus.desync.com%3A6969"],"infoHash":"e9575c8085482bca02efe99f48da08c805b73877","infoHashBuffer":{"type":"Buffer","data":[233,87,92,128,133,72,43,202,2,239,233,159,72,218,8,200,5,183,56,119]},"announce":[],"urlList":[]}}